<svg xmlns="http://www.w3.org/2000/svg" xmlns:osb="http://www.openswatchbook.org/uri/2009/osb" xmlns:svg="http://www.w3.org/2000/svg" xmlns:xlink="http://www.w3.org/1999/xlink" id="svg11300" width="32" height="32" version="1.0" viewBox="0 0 32 32" style="display:inline;enable-background:new"><metadata id="metadata93"/><title id="title4162">elementary Icon Template</title><defs id="defs3"><linearGradient id="linearGradient854"><stop style="stop-color:#29d146;stop-opacity:1" id="stop850" offset="0"/><stop style="stop-color:#00e676;stop-opacity:1" id="stop852" offset="1"/></linearGradient><linearGradient id="linearGradient7258"><stop id="stop7254" offset="0" style="stop-color:#fff;stop-opacity:1"/><stop id="stop7256" offset="1" style="stop-color:#eef8fe;stop-opacity:1"/></linearGradient><linearGradient id="linearGradient3924-4-8"><stop id="stop3926-0-4" offset="0" style="stop-color:#fff;stop-opacity:1"/><stop id="stop3928-6-8" offset=".063" style="stop-color:#fff;stop-opacity:.23529412"/><stop id="stop3930-2-1" offset=".951" style="stop-color:#fff;stop-opacity:.15686275"/><stop id="stop3932-9-0" offset="1" style="stop-color:#fff;stop-opacity:.39215687"/></linearGradient><linearGradient id="linearGradient3702-501-757-6-946"><stop id="stop3228" offset="0" style="stop-color:#181818;stop-opacity:0"/><stop id="stop3230" offset=".5" style="stop-color:#181818;stop-opacity:1"/><stop id="stop3232" offset="1" style="stop-color:#181818;stop-opacity:0"/></linearGradient><linearGradient id="linearGradient4161" x1="24" x2="24" y1="5" y2="43" gradientTransform="matrix(0.67567568,0,0,0.67567568,123.78378,93.78379)" gradientUnits="userSpaceOnUse" xlink:href="#linearGradient3924-4-8"/><radialGradient id="radialGradient5600-7" cx="7.9" cy="10.028" r="12.672" fx="6.633" fy="10.028" gradientTransform="matrix(6.0103372e-7,3.1565973,-2.8409371,5.4093024e-7,168.49,67.06234)" gradientUnits="userSpaceOnUse" xlink:href="#linearGradient2867-449-88-871-390-598-476-591-434-148-57-177-8-3-3-6-4-8-8-8-5-6"/><radialGradient id="radialGradient2976" cx="4.993" cy="43.5" r="2.5" fx="4.993" fy="43.5" gradientTransform="matrix(1.4764724,0,0,0.59999988,142.93862,97.40001)" gradientUnits="userSpaceOnUse" xlink:href="#linearGradient3688-166-749-6"/><linearGradient id="linearGradient3688-166-749-6"><stop id="stop2883-8" offset="0" style="stop-color:#181818;stop-opacity:1"/><stop id="stop2885-3" offset="1" style="stop-color:#181818;stop-opacity:0"/></linearGradient><radialGradient id="radialGradient2978" cx="4.993" cy="43.5" r="2.5" fx="4.993" fy="43.5" gradientTransform="matrix(1.4764724,0,0,0.59999988,-137.06138,-149.6)" gradientUnits="userSpaceOnUse" xlink:href="#linearGradient3688-166-749-6"/><linearGradient id="linearGradient2980" x1="25.058" x2="25.058" y1="47.028" y2="39.999" gradientTransform="matrix(0.73684208,0,0,0.42857134,122.31579,104.85715)" gradientUnits="userSpaceOnUse" xlink:href="#linearGradient3702-501-757-6-946"/><linearGradient id="linearGradient2867-449-88-871-390-598-476-591-434-148-57-177-8-3-3-6-4-8-8-8-5-6"><stop id="stop3750-1-0-7-6-6-1-3-9-5-1" offset="0" style="stop-color:#74c5f7;stop-opacity:1"/><stop id="stop7287" offset=".609" style="stop-color:#1da1f2;stop-opacity:1"/><stop id="stop3756-1-6-2-6-6-1-96-6-2-3" offset="1" style="stop-color:#0d8cdb;stop-opacity:1"/></linearGradient><linearGradient id="linearGradient7260" x1="129" x2="129" y1="141" y2="164" gradientTransform="matrix(0.94444444,0,0,0.94444444,5.5141246,-33.907548)" gradientUnits="userSpaceOnUse" xlink:href="#linearGradient7258"/><linearGradient id="linearGradient4526" osb:paint="solid"><stop id="stop4528" offset="0" style="stop-color:#fff;stop-opacity:1"/></linearGradient><linearGradient id="linearGradient856" x1="140.195" x2="140.008" y1="123.22" y2="96.644" gradientUnits="userSpaceOnUse" xlink:href="#linearGradient854"/></defs><g id="g153" transform="translate(-124,-94)"><rect id="rect2801-0-3" width="3.684" height="3" x="150.316" y="122" style="opacity:.4;fill:url(#radialGradient2976);fill-opacity:1;stroke:none;stroke-width:.5619514"/><rect id="rect3696-2-6" width="3.684" height="3" x="-129.684" y="-125" transform="scale(-1)" style="opacity:.4;fill:url(#radialGradient2978);fill-opacity:1;stroke:none;stroke-width:.5619514"/><rect id="rect3700-1-7" width="20.632" height="3" x="129.684" y="122" style="opacity:.4;fill:url(#linearGradient2980);fill-opacity:1;stroke:none;stroke-width:.5619514"/><rect id="rect5505-5" width="27" height="27" x="126.5" y="96.5" rx="2.16" ry="2.16" style="color:#000;display:inline;overflow:visible;visibility:visible;fill:url(#linearGradient856);fill-opacity:1;fill-rule:nonzero;stroke:none;stroke-width:.99999994;marker:none;enable-background:accumulate"/><rect id="rect6741-7-4-3" width="25" height="25" x="127.5" y="97.5" rx="1.087" ry="1.087" style="opacity:.5;fill:none;stroke:url(#linearGradient4161);stroke-width:1;stroke-linecap:round;stroke-linejoin:round;stroke-miterlimit:4;stroke-dasharray:none;stroke-dashoffset:0;stroke-opacity:1"/><path style="isolation:isolate;fill:#fff;stroke-width:.81355131" id="path77" d="m 131.95111,117.82338 c -0.057,0 -0.11064,-0.0228 -0.15132,-0.0635 -0.0529,-0.0537 -0.0732,-0.13261 -0.0529,-0.20583 l 1.12189,-4.10192 c -0.6964,-1.24311 -1.0625,-2.64323 -1.0625,-4.06776 0.002,-4.57297 3.72363,-8.29253 8.2966,-8.29253 2.20147,-0.005 4.31426,0.87131 5.86652,2.43252 1.56039,1.55144 2.43495,3.66423 2.42763,5.86489 -0.002,4.57297 -3.72281,8.29253 -8.29415,8.29253 -1.35863,0 -2.70099,-0.33437 -3.89285,-0.96894 l -4.20362,1.10236 c -0.0179,0.005 -0.0366,0.008 -0.0553,0.008 z"/><rect id="rect5505-6" width="27" height="27" x="126.5" y="96.5" rx="2.16" ry="2.16" style="color:#000;clip-rule:nonzero;display:inline;overflow:visible;visibility:visible;opacity:1;isolation:auto;mix-blend-mode:normal;color-interpolation:sRGB;color-interpolation-filters:linearRGB;solid-color:#000;solid-opacity:1;fill:none;fill-opacity:1;fill-rule:nonzero;stroke:#042c45;stroke-width:1;stroke-linecap:round;stroke-linejoin:round;stroke-miterlimit:4;stroke-dasharray:none;stroke-dashoffset:0;stroke-opacity:.4;marker:none;color-rendering:auto;image-rendering:auto;shape-rendering:auto;text-rendering:auto;enable-background:accumulate"/><path style="isolation:isolate;fill:#6f6f6f;fill-opacity:.81000001;stroke-width:.81355131" id="path79" d="m 140.1029,101.30422 c 2.14533,-0.005 4.20443,0.84853 5.71682,2.36987 1.52053,1.5124 2.3715,3.57068 2.365,5.7152 -0.002,4.45664 -3.62844,8.08019 -8.08182,8.08019 h -0.003 c -1.35375,0 -2.68228,-0.33925 -3.86274,-0.98277 l -4.28579,1.12352 1.14792,-4.18654 c -0.70941,-1.22846 -1.08121,-2.62126 -1.07958,-4.03928 0.002,-4.45501 3.62681,-8.08019 8.08345,-8.08019 z m 0,-0.42549 c -4.69094,0 -8.50812,3.81393 -8.50894,8.50568 0,1.43348 0.36041,2.84499 1.04704,4.09623 l -1.10073,4.01732 c -0.0399,0.14806 0.002,0.30427 0.1082,0.41247 0.0822,0.0814 0.192,0.1261 0.30264,0.1261 0.0366,0 0.0732,-0.005 0.10821,-0.0146 l 4.12389,-1.08121 c 1.21056,0.62644 2.55373,0.9543 3.91643,0.95593 4.69257,0 8.50894,-3.81637 8.51056,-8.50487 8.2e-4,-0.30427 -0.0146,-0.60691 -0.0456,-0.90711 -0.20094,-1.92486 -1.05924,-3.73338 -2.4439,-5.11154 -1.60595,-1.60839 -3.74478,-2.49273 -6.01784,-2.49435 z"/><path style="isolation:isolate;fill:#40c351;stroke-width:.81355131" id="path81" d="m 144.85404,104.63815 c -1.25694,-1.26426 -2.96702,-1.97286 -4.74952,-1.96879 -3.70491,0 -6.71993,3.01176 -6.72156,6.71505 0,1.26833 0.35553,2.50411 1.02833,3.57393 l 0.15946,0.25383 -0.6785,2.47808 2.54234,-0.66712 0.24651,0.14644 c 1.03402,0.61342 2.2153,0.93721 3.41773,0.9364 h 0.004 c 3.70166,0 6.71424,-3.01339 6.71668,-6.71668 0.006,-1.78249 -0.7021,-3.49339 -1.96554,-4.75114 z"/><path style="isolation:isolate;fill:#fff;fill-rule:evenodd;stroke-width:.81355131" id="path83" d="m 138.08285,106.00736 c -0.15214,-0.33763 -0.31078,-0.34495 -0.45559,-0.34902 -0.11878,-0.006 -0.25383,-0.006 -0.38725,-0.006 -0.13342,0 -0.35389,0.0504 -0.53776,0.25301 -0.1863,0.20095 -0.7086,0.6899 -0.7086,1.68487 0,0.99253 0.72487,1.95334 0.82494,2.08839 0.10169,0.1326 1.3985,2.23808 3.45027,3.04756 1.70602,0.67199 2.05341,0.53938 2.42357,0.50603 0.37017,-0.035 1.19511,-0.48895 1.36351,-0.96081 0.16759,-0.47104 0.16759,-0.87538 0.11715,-0.95999 -0.0496,-0.0854 -0.18386,-0.13505 -0.38725,-0.23593 -0.20094,-0.10169 -1.19348,-0.58901 -1.37978,-0.65735 -0.18468,-0.0659 -0.31972,-0.0992 -0.45396,0.1017 -0.13505,0.20094 -0.5223,0.65653 -0.64027,0.79158 -0.11796,0.13424 -0.2343,0.15132 -0.43769,0.0513 -0.20094,-0.10088 -0.85097,-0.31403 -1.62222,-1.0023 -0.6004,-0.53532 -1.00636,-1.19592 -1.12433,-1.39849 -0.11796,-0.20095 -0.0138,-0.31078 0.0879,-0.41247 0.0911,-0.0895 0.20339,-0.23593 0.30427,-0.3539 0.0993,-0.11878 0.13261,-0.20176 0.20176,-0.33681 0.0659,-0.13423 0.0325,-0.2522 -0.0171,-0.35389 -0.0504,-0.10088 -0.44257,-1.09911 -0.62155,-1.49857 z"/></g></svg>